<?xml version="1.0" encoding="UTF-8" standalone="no"?>
<!DOCTYPE svg PUBLIC "-//W3C//DTD SVG 1.1//EN" "http://www.w3.org/Graphics/SVG/1.1/DTD/svg11.dtd">
<svg width="100%" height="100%" viewBox="0 0 600 600" version="1.1" xmlns="http://www.w3.org/2000/svg" xmlns:xlink="http://www.w3.org/1999/xlink" xml:space="preserve" xmlns:serif="http://www.serif.com/" style="fill-rule:evenodd;clip-rule:evenodd;stroke-linecap:round;stroke-linejoin:round;stroke-miterlimit:1.5;">
    <g>
        <path d="M300.5,348.695L388,343C403.076,378.378 460.426,414.815 504.345,433.541C566.762,460.154 534.184,626.398 600,630L569,634L300.5,626.669L32,634L1,630C66.816,626.398 34.238,460.154 96.655,433.541C140.574,414.815 197.924,378.378 213,343L300.5,348.695Z" style="fill:rgb(56,45,39);stroke:rgb(72,65,42);stroke-width:1px;"/>
        <g transform="matrix(0.944334,0,0,1,28.669,-2)">
            <ellipse cx="290" cy="596" rx="173" ry="137" style="fill:rgb(76,59,50);"/>
        </g>
        <g transform="matrix(0.944334,0,0,1,28.669,-2)">
            <ellipse cx="290" cy="596" rx="173" ry="137" style="fill-opacity:0.19;"/>
        </g>
    </g>
    <g>
        <path d="M137,600C134.308,568.149 139.422,542.04 145,522C167.505,514.044 177.113,485.581 189,444C195.553,434.462 207.828,431.281 225,433.541L383,433.541C398.641,434.973 407.978,441.308 413,451C430.284,490.543 446.486,512.774 462,524C466.639,544.024 471.505,569.357 467,600L137,600Z" style="fill:rgb(101,95,95);"/>
        <g transform="matrix(1,0,0,1.04047,-5,-17.8414)">
            <path d="M375.765,457.617L411,372C415.807,372.01 418.969,374.135 420,379L388,461C382.034,463.109 377.955,461.981 375.765,457.617Z" style="fill:rgb(199,199,199);stroke:rgb(101,95,95);stroke-width:0.17px;"/>
            <g transform="matrix(0.984839,-0.173468,0.173468,0.984839,-64.4136,73.259)">
                <path d="M375.765,457.617L411,372C415.807,372.01 418.969,374.135 420,379L388,461C382.034,463.109 377.955,461.981 375.765,457.617Z" style="fill:rgb(199,199,199);stroke:rgb(101,95,95);stroke-width:0.3px;"/>
            </g>
        </g>
        <g transform="matrix(-1,0,0,1.04047,614.765,-14.8414)">
            <path d="M375.765,457.617L411,372C415.807,372.01 418.969,374.135 420,379L388,461C382.034,463.109 377.955,461.981 375.765,457.617Z" style="fill:rgb(199,199,199);stroke:rgb(101,95,95);stroke-width:0.17px;"/>
            <g transform="matrix(0.984839,-0.173468,0.173468,0.984839,-64.4136,73.259)">
                <path d="M375.765,457.617L411,372C415.807,372.01 418.969,374.135 420,379L388,461C382.034,463.109 377.955,461.981 375.765,457.617Z" style="fill:rgb(199,199,199);stroke:rgb(101,95,95);stroke-width:0.3px;"/>
            </g>
        </g>
        <g transform="matrix(1,0,0,1,154,0)">
            <ellipse cx="228" cy="467" rx="18" ry="10" style="fill:rgb(199,199,199);"/>
        </g>
        <ellipse cx="228" cy="467" rx="18" ry="10" style="fill:rgb(199,199,199);"/>
        <path d="M232,546C231.702,546.315 388,545 388,545" style="fill:none;stroke:rgb(88,79,79);stroke-width:1.89px;"/>
    </g>
    <g>
        <g transform="matrix(1.11852,0,0,1,-45.9778,-1)">
            <path d="M312,117C350.968,117 387.461,133.794 404.88,163.994C420.767,191.538 419.285,230.403 419.285,274.5C419.285,316.611 412.484,357.188 398.035,388.891C389.208,408.259 373.951,412.314 359.223,423.384C349.124,430.975 341.167,448.221 328.14,450.584C322.994,451.517 317.616,452 312,452C300.909,452 290.485,450.027 280.776,446.363C267.33,441.289 260.619,426.973 250.038,416.165C240.638,406.564 227.054,400.996 220.101,387.988C202.565,355.176 193.093,313.2 193.093,270.5C193.093,232.027 195.418,194.991 209.768,169.53C229.898,133.811 268.5,117 312,117Z"/>
        </g>
        <g transform="matrix(1.11852,0,0,1,-45.9778,-2)">
            <path d="M312,117C350.968,117 387.461,133.794 404.88,163.994C420.767,191.538 419.285,230.403 419.285,274.5C419.285,316.611 412.484,357.188 398.035,388.891C389.208,408.259 373.951,412.314 359.223,423.384C349.124,430.975 341.167,448.221 328.14,450.584C322.994,451.517 317.616,452 312,452C300.909,452 290.485,450.027 280.776,446.363C267.33,441.289 260.619,426.973 250.038,416.165C240.638,406.564 227.054,400.996 220.101,387.988C202.565,355.176 193.093,313.2 193.093,270.5C193.093,232.027 195.418,194.991 209.768,169.53C229.898,133.811 268.5,117 312,117Z" style="fill:rgb(76,59,50);"/>
        </g>
    </g>
    <g>
        <g>
            <path d="M259.885,299.688C255.122,302.126 247.843,303.046 231.309,300.529C229.122,300.201 227.1,299.177 225.542,297.608C215.815,287.854 211.623,280.114 215,269L206,259L203,241L231.521,225C252.899,230.954 274.395,234.45 296,235.716C317.605,234.45 339.101,230.954 360.479,225L389,241L386,259L377,269C380.377,280.114 376.185,287.854 366.458,297.608C364.9,299.177 362.878,300.201 360.691,300.529C345.973,302.769 338.589,302.287 333.786,300.434C341.669,309.343 347.877,321.043 352.291,334.305C355.656,344.419 361.521,354.556 361.521,366.25C361.521,399.523 348.428,433.291 326.59,446.798C318.091,452.055 306.571,450 296.521,450C283.803,450 273.934,453.284 263.91,445.137C245.657,430.301 231.521,396.087 231.521,366.25C231.521,354.913 237.273,345.099 240.447,335.234C244.959,321.208 251.492,308.887 259.885,299.688Z" style="fill:rgb(227,135,86);fill-opacity:0.93;"/>
        </g>
    </g>
    <g>
        <g>
            <path d="M197,179L176,168L147,173L144,176L137,193L147,235L149,268L160,282.5L178,282.5L197,179Z" style="fill:rgb(56,45,39);"/>
            <path d="M182,203L159,178L147,180L142,196L155,235L157,263.512L165,272L181,268L182,203Z" style="fill:rgb(220,134,86);"/>
        </g>
        <g transform="matrix(-1,0,0,1,599,0)">
            <path d="M197,179L176,168L147,173L144,176L137,193L147,235L149,268L160,282.5L178,282.5L197,179Z" style="fill:rgb(56,45,39);"/>
            <path d="M182,203L159,178L147,180L142,196L155,235L157,263.512L165,272L181,268L182,203Z" style="fill:rgb(220,134,86);"/>
        </g>
    </g>
    <path d="M260,404C301.814,405.649 308.254,405.272 340,400C303.811,410.831 296.699,408.664 260,404Z"/>
    <path d="M265,327L274,324C279.022,329.749 286.218,333.945 294.63,337.274C295.827,337.745 297.175,337.641 298.285,336.99C305.012,333.02 310.592,328.362 315,323L327,326C315.315,333.225 305.611,339.729 298.71,345.215C297.359,346.311 295.497,346.532 293.927,345.782C280.302,339.287 270.327,333.007 265,327"/>
    <g>
        <path d="M211,261L231.521,248C271.629,261.711 285.398,272.727 287,282.5C276.605,277.738 265.792,272.61 259,271C241.494,277.474 232.84,273.9 231.521,262L222,264L211,261Z"/>
        <g transform="matrix(-1,0,0,1,585,0)">
            <path d="M211,261L231.521,248C271.629,261.711 285.398,272.727 287,282.5C276.605,277.738 265.792,272.61 259,271C241.494,277.474 232.84,273.9 231.521,262L222,264L211,261Z"/>
        </g>
        <g>
            <path d="M239,256C245.483,256.888 250.385,258.962 254,262C253.533,266.058 251.904,269.092 249,271C244.122,272.52 236.436,268.175 237,265C236.812,261.502 237.467,258.495 239,256Z" style="fill:rgb(255,228,0);"/>
            <g transform="matrix(0.706422,0,0,0.706422,72.5687,75.1559)">
                <path d="M239,256C245.483,256.888 250.385,258.962 254,262C253.533,266.058 251.904,269.092 249,271C244.122,272.52 236.436,268.175 237,265C236.812,261.502 237.467,258.495 239,256Z"/>
            </g>
        </g>
        <g transform="matrix(-1,0,0,1,583.969,0)">
            <path d="M239,256C245.483,256.888 250.385,258.962 254,262C253.533,266.058 251.904,269.092 249,271C244.122,272.52 236.436,268.175 237,265C236.812,261.502 237.467,258.495 239,256Z" style="fill:rgb(255,228,0);"/>
            <g transform="matrix(0.706422,0,0,0.706422,72.5687,75.1559)">
                <path d="M239,256C245.483,256.888 250.385,258.962 254,262C253.533,266.058 251.904,269.092 249,271C244.122,272.52 236.436,268.175 237,265C236.812,261.502 237.467,258.495 239,256Z"/>
            </g>
        </g>
    </g>
    <g>
        <path d="M285,114C183.275,120.942 151.21,197.544 169,324C193.354,328.795 216.819,342.475 239,369L300,389L363,370C371.999,347.48 392.444,335.136 421,330C447.821,185.845 410.288,106.046 285,114ZM215,266C214.448,280.462 220.958,289.299 233.476,293.352C245.995,297.405 264.521,296.675 288,292C278.252,260.792 254.12,251.815 215,266ZM391.968,266C392.52,280.462 386.01,289.299 373.491,293.352C360.973,297.405 342.447,296.675 318.968,292C328.715,260.792 352.848,251.815 391.968,266Z" style="fill:rgb(224,232,230);"/>
        <path d="M428.183,225C424.823,262.71 422.688,293.726 418.165,320C388.983,328.994 371.23,348.321 358,367L363,370C372.884,349.02 390.56,334.478 422,331.5C429.767,288.633 430.598,257.115 428.183,225Z" style="fill:rgb(144,29,17);"/>
        <path d="M166.346,233C163.434,253.107 161.644,277.653 169,324C201.561,332.802 222.544,349.235 238,370L242,365C222.795,347.261 202.926,328.586 178,320C174.115,302.036 170.231,272.61 166.346,233Z" style="fill:rgb(144,29,17);"/>
        <path d="M269,329L268,337L300,349L300,344L269,329Z"/>
        <g transform="matrix(-1,0,0,1,602,0)">
            <path d="M269,329L268,337L300,349L300,344L269,329Z"/>
        </g>
        <path d="M200,225C200.76,236.615 207.149,245.791 225,250C261.473,246.816 283.287,251.234 289,264C298.103,271.377 307.758,271.864 318,265C325.021,250.947 349.51,246.394 389,250C397.88,245.688 404.968,236.718 411,225C411.736,237.903 410.676,250.667 404,263C415.527,270.968 419.006,284.057 418,300C412.841,288.614 407.01,278.974 399,275C393.682,299.016 368.319,307.301 318,296C311.114,298.864 303.595,299.402 295,296C254.7,304.968 220.202,305.97 209,275C200.756,278.158 196.116,287.725 193,300C191.257,285.128 191.894,271.447 205,264C197.2,247.126 196.974,235.036 200,225ZM215,266C214.448,280.462 220.958,289.299 233.476,293.352C245.995,297.405 264.521,296.675 288,292C278.252,260.792 254.12,251.815 215,266ZM391,266C391.552,280.462 385.042,289.299 372.524,293.352C360.005,297.405 341.479,296.675 318,292C327.748,260.792 351.88,251.815 391,266Z"/>
        <path d="M110,77L230,151C230.873,165.185 223.396,176.123 202.908,182L106,82C104.283,78.59 104.911,76.521 110,77Z" style="fill:rgb(144,29,17);"/>
        <g transform="matrix(-1,0,0,1,611.209,0)">
            <path d="M110,77L230,151C230.873,165.185 223.396,176.123 202.908,182L106,82C104.283,78.59 104.911,76.521 110,77Z" style="fill:rgb(144,29,17);"/>
        </g>
        <path d="M261,320L253,327C253,327 259.102,342.954 259,343" style="fill:none;stroke:black;stroke-width:0.61px;"/>
        <g transform="matrix(-1,0,0,1,605,0)">
            <path d="M261,320L253,327C253,327 259.102,342.954 259,343" style="fill:none;stroke:black;stroke-width:0.61px;"/>
        </g>
    </g>
    <g>
        <g transform="matrix(0.84507,0,0,0.84507,31.3521,84.5352)">
            <circle cx="218.5" cy="529.5" r="35.5" style="fill:none;stroke:white;stroke-width:17.39px;"/>
        </g>
        <g>
            <g transform="matrix(1,0,0,1,2,2)">
                <path d="M506,449L591,542C551.929,570.003 509.767,583.58 465,585L450,473L506,449Z"/>
            </g>
            <path d="M506,449L591,542C551.929,570.003 509.767,583.58 465,585L450,473L506,449Z" style="fill:rgb(97,98,103);"/>
            <g transform="matrix(0.984625,-0.174682,0.174682,0.984625,-102.308,39.8707)">
                <path d="M506,449L591,542C551.929,570.003 509.767,583.58 465,585L450,473L506,449Z"/>
            </g>
            <g transform="matrix(0.984625,-0.174682,0.174682,0.984625,-104.308,37.8707)">
                <path d="M506,449L591,542C551.929,570.003 509.767,583.58 465,585L450,473L506,449Z" style="fill:rgb(97,98,103);"/>
            </g>
            <g transform="matrix(0.95917,-0.282829,0.282829,0.95917,-177.971,65.3216)">
                <path d="M502.372,471.909L591,542C551.929,570.003 522.328,579.875 477.561,581.295L455.841,513.297L502.372,471.909Z"/>
            </g>
            <g transform="matrix(0.95917,-0.282829,0.282829,0.95917,-179.971,63.3216)">
                <path d="M502.372,471.909L591,542C551.929,570.003 522.328,579.875 477.561,581.295L455.841,513.297L502.372,471.909Z" style="fill:rgb(97,98,103);"/>
            </g>
        </g>
        <path d="M197,532L118,600L160,600L216,555L197,532Z" style="fill:rgb(29,31,30);"/>
        <path d="M449,416L228,514L232,543L460,451L449,416Z" style="fill:rgb(29,31,30);"/>
        <path d="M149,406L216,511L197,525L118,423C124.511,418.767 134.334,413.291 149,406Z" style="fill:rgb(29,31,30);"/>
    </g>
    <g>
        <path d="M22,300C28.004,276.67 46.182,265.516 80,270C168.378,388.782 248.213,522.582 325,646L302.526,650C219.988,556.963 134.846,458.316 22,300Z" style="fill:rgb(29,31,30);"/>
        <g>
            <path d="M28,316C53.3,310.946 75.594,302.385 95.198,290.685" style="fill:none;stroke:rgb(148,150,148);stroke-width:4.5px;"/>
            <path d="M37,331C62.3,325.946 75.594,297.385 95.198,285.685" style="fill:none;stroke:rgb(148,150,148);stroke-width:4.5px;"/>
            <path d="M37,308.343L41,319.67" style="fill:none;stroke:rgb(148,150,148);stroke-width:4.5px;"/>
            <g transform="matrix(1,0,0,1,12,-3.67046)">
                <path d="M37,308.343L41,319.67" style="fill:none;stroke:rgb(148,150,148);stroke-width:4.5px;"/>
            </g>
            <g transform="matrix(1,0,0,1,27.0992,-11.3279)">
                <path d="M37,308.343L41,319.67" style="fill:none;stroke:rgb(148,150,148);stroke-width:4.5px;"/>
            </g>
            <g transform="matrix(1,0,0,1,8,16.9935)">
                <path d="M37,308.343L41,319.67" style="fill:none;stroke:rgb(148,150,148);stroke-width:4.5px;"/>
            </g>
            <g transform="matrix(1,0,0,1,18,5.66558)">
                <path d="M37,308.343L41,319.67" style="fill:none;stroke:rgb(148,150,148);stroke-width:4.5px;"/>
            </g>
            <g transform="matrix(1,0,0,1,37,-8.34253)">
                <path d="M37,308.343L41,319.67" style="fill:none;stroke:rgb(148,150,148);stroke-width:4.5px;"/>
            </g>
            <g transform="matrix(1,0,0,1,46,-22.6559)">
                <path d="M37,308.343L41,319.67" style="fill:none;stroke:rgb(148,150,148);stroke-width:4.5px;"/>
            </g>
            <g transform="matrix(1,0,0,1,54.1985,-19.6705)">
                <path d="M37,308.343L41,319.67" style="fill:none;stroke:rgb(148,150,148);stroke-width:4.5px;"/>
            </g>
        </g>
        <g transform="matrix(1,0,0,1,31.5992,38)">
            <path d="M28,316C53.3,310.946 75.594,302.385 95.198,290.685" style="fill:none;stroke:rgb(148,150,148);stroke-width:4.5px;"/>
            <path d="M37,331C62.3,325.946 75.594,297.385 95.198,285.685" style="fill:none;stroke:rgb(148,150,148);stroke-width:4.5px;"/>
            <path d="M37,308.343L41,319.67" style="fill:none;stroke:rgb(148,150,148);stroke-width:4.5px;"/>
            <g transform="matrix(1,0,0,1,12,-3.67046)">
                <path d="M37,308.343L41,319.67" style="fill:none;stroke:rgb(148,150,148);stroke-width:4.5px;"/>
            </g>
            <g transform="matrix(1,0,0,1,27.0992,-11.3279)">
                <path d="M37,308.343L41,319.67" style="fill:none;stroke:rgb(148,150,148);stroke-width:4.5px;"/>
            </g>
            <g transform="matrix(1,0,0,1,8,16.9935)">
                <path d="M37,308.343L41,319.67" style="fill:none;stroke:rgb(148,150,148);stroke-width:4.5px;"/>
            </g>
            <g transform="matrix(1,0,0,1,18,5.66558)">
                <path d="M37,308.343L41,319.67" style="fill:none;stroke:rgb(148,150,148);stroke-width:4.5px;"/>
            </g>
            <g transform="matrix(1,0,0,1,37,-8.34253)">
                <path d="M37,308.343L41,319.67" style="fill:none;stroke:rgb(148,150,148);stroke-width:4.5px;"/>
            </g>
            <g transform="matrix(1,0,0,1,46,-22.6559)">
                <path d="M37,308.343L41,319.67" style="fill:none;stroke:rgb(148,150,148);stroke-width:4.5px;"/>
            </g>
            <g transform="matrix(1,0,0,1,54.1985,-19.6705)">
                <path d="M37,308.343L41,319.67" style="fill:none;stroke:rgb(148,150,148);stroke-width:4.5px;"/>
            </g>
        </g>
        <g transform="matrix(1,0,0,1,56.5992,72)">
            <path d="M28,316C53.3,310.946 75.594,302.385 95.198,290.685" style="fill:none;stroke:rgb(148,150,148);stroke-width:4.5px;"/>
            <path d="M37,331C62.3,325.946 75.594,297.385 95.198,285.685" style="fill:none;stroke:rgb(148,150,148);stroke-width:4.5px;"/>
            <path d="M37,308.343L41,319.67" style="fill:none;stroke:rgb(148,150,148);stroke-width:4.5px;"/>
            <g transform="matrix(1,0,0,1,12,-3.67046)">
                <path d="M37,308.343L41,319.67" style="fill:none;stroke:rgb(148,150,148);stroke-width:4.5px;"/>
            </g>
            <g transform="matrix(1,0,0,1,27.0992,-11.3279)">
                <path d="M37,308.343L41,319.67" style="fill:none;stroke:rgb(148,150,148);stroke-width:4.5px;"/>
            </g>
            <g transform="matrix(1,0,0,1,8,16.9935)">
                <path d="M37,308.343L41,319.67" style="fill:none;stroke:rgb(148,150,148);stroke-width:4.5px;"/>
            </g>
            <g transform="matrix(1,0,0,1,18,5.66558)">
                <path d="M37,308.343L41,319.67" style="fill:none;stroke:rgb(148,150,148);stroke-width:4.5px;"/>
            </g>
            <g transform="matrix(1,0,0,1,37,-8.34253)">
                <path d="M37,308.343L41,319.67" style="fill:none;stroke:rgb(148,150,148);stroke-width:4.5px;"/>
            </g>
            <g transform="matrix(1,0,0,1,46,-22.6559)">
                <path d="M37,308.343L41,319.67" style="fill:none;stroke:rgb(148,150,148);stroke-width:4.5px;"/>
            </g>
            <g transform="matrix(1,0,0,1,54.1985,-19.6705)">
                <path d="M37,308.343L41,319.67" style="fill:none;stroke:rgb(148,150,148);stroke-width:4.5px;"/>
            </g>
        </g>
        <g transform="matrix(0.895831,0,0,0.895831,89.516,148.406)">
            <path d="M28,316C53.3,310.946 75.594,302.385 95.198,290.685" style="fill:none;stroke:rgb(148,150,148);stroke-width:5.03px;"/>
            <path d="M37,331C62.3,325.946 75.594,297.385 95.198,285.685" style="fill:none;stroke:rgb(148,150,148);stroke-width:5.03px;"/>
            <path d="M37,308.343L41,319.67" style="fill:none;stroke:rgb(148,150,148);stroke-width:5.03px;"/>
            <g transform="matrix(1,0,0,1,12,-3.67046)">
                <path d="M37,308.343L41,319.67" style="fill:none;stroke:rgb(148,150,148);stroke-width:5.03px;"/>
            </g>
            <g transform="matrix(1,0,0,1,27.0992,-11.3279)">
                <path d="M37,308.343L41,319.67" style="fill:none;stroke:rgb(148,150,148);stroke-width:5.03px;"/>
            </g>
            <g transform="matrix(1,0,0,1,8,16.9935)">
                <path d="M37,308.343L41,319.67" style="fill:none;stroke:rgb(148,150,148);stroke-width:5.03px;"/>
            </g>
            <g transform="matrix(1,0,0,1,18,5.66558)">
                <path d="M37,308.343L41,319.67" style="fill:none;stroke:rgb(148,150,148);stroke-width:5.03px;"/>
            </g>
            <g transform="matrix(1,0,0,1,37,-8.34253)">
                <path d="M37,308.343L41,319.67" style="fill:none;stroke:rgb(148,150,148);stroke-width:5.03px;"/>
            </g>
            <g transform="matrix(1,0,0,1,46,-22.6559)">
                <path d="M37,308.343L41,319.67" style="fill:none;stroke:rgb(148,150,148);stroke-width:5.03px;"/>
            </g>
            <g transform="matrix(1,0,0,1,54.1985,-19.6705)">
                <path d="M37,308.343L41,319.67" style="fill:none;stroke:rgb(148,150,148);stroke-width:5.03px;"/>
            </g>
        </g>
        <g transform="matrix(0.851187,0,0,0.851187,119.568,198.436)">
            <path d="M28,316C53.3,310.946 75.594,302.385 95.198,290.685" style="fill:none;stroke:rgb(148,150,148);stroke-width:5.29px;"/>
            <path d="M37,331C62.3,325.946 75.594,297.385 95.198,285.685" style="fill:none;stroke:rgb(148,150,148);stroke-width:5.29px;"/>
            <path d="M37,308.343L41,319.67" style="fill:none;stroke:rgb(148,150,148);stroke-width:5.29px;"/>
            <g transform="matrix(1,0,0,1,12,-3.67046)">
                <path d="M37,308.343L41,319.67" style="fill:none;stroke:rgb(148,150,148);stroke-width:5.29px;"/>
            </g>
            <g transform="matrix(1,0,0,1,27.0992,-11.3279)">
                <path d="M37,308.343L41,319.67" style="fill:none;stroke:rgb(148,150,148);stroke-width:5.29px;"/>
            </g>
            <g transform="matrix(1,0,0,1,8,16.9935)">
                <path d="M37,308.343L41,319.67" style="fill:none;stroke:rgb(148,150,148);stroke-width:5.29px;"/>
            </g>
            <g transform="matrix(1,0,0,1,18,5.66558)">
                <path d="M37,308.343L41,319.67" style="fill:none;stroke:rgb(148,150,148);stroke-width:5.29px;"/>
            </g>
            <g transform="matrix(1,0,0,1,37,-8.34253)">
                <path d="M37,308.343L41,319.67" style="fill:none;stroke:rgb(148,150,148);stroke-width:5.29px;"/>
            </g>
            <g transform="matrix(1,0,0,1,46,-22.6559)">
                <path d="M37,308.343L41,319.67" style="fill:none;stroke:rgb(148,150,148);stroke-width:5.29px;"/>
            </g>
            <g transform="matrix(1,0,0,1,54.1985,-19.6705)">
                <path d="M37,308.343L41,319.67" style="fill:none;stroke:rgb(148,150,148);stroke-width:5.29px;"/>
            </g>
        </g>
        <g transform="matrix(0.806543,0,0,0.806543,141.818,238.662)">
            <path d="M28,316C53.3,310.946 75.594,302.385 95.198,290.685" style="fill:none;stroke:rgb(148,150,148);stroke-width:5.59px;"/>
            <path d="M37,331C62.3,325.946 75.594,297.385 95.198,285.685" style="fill:none;stroke:rgb(148,150,148);stroke-width:5.59px;"/>
            <path d="M37,308.343L41,319.67" style="fill:none;stroke:rgb(148,150,148);stroke-width:5.59px;"/>
            <g transform="matrix(1,0,0,1,12,-3.67046)">
                <path d="M37,308.343L41,319.67" style="fill:none;stroke:rgb(148,150,148);stroke-width:5.59px;"/>
            </g>
            <g transform="matrix(1,0,0,1,27.0992,-11.3279)">
                <path d="M37,308.343L41,319.67" style="fill:none;stroke:rgb(148,150,148);stroke-width:5.59px;"/>
            </g>
            <g transform="matrix(1,0,0,1,8,16.9935)">
                <path d="M37,308.343L41,319.67" style="fill:none;stroke:rgb(148,150,148);stroke-width:5.59px;"/>
            </g>
            <g transform="matrix(1,0,0,1,18,5.66558)">
                <path d="M37,308.343L41,319.67" style="fill:none;stroke:rgb(148,150,148);stroke-width:5.59px;"/>
            </g>
            <g transform="matrix(1,0,0,1,37,-8.34253)">
                <path d="M37,308.343L41,319.67" style="fill:none;stroke:rgb(148,150,148);stroke-width:5.59px;"/>
            </g>
            <g transform="matrix(1,0,0,1,46,-22.6559)">
                <path d="M37,308.343L41,319.67" style="fill:none;stroke:rgb(148,150,148);stroke-width:5.59px;"/>
            </g>
            <g transform="matrix(1,0,0,1,54.1985,-19.6705)">
                <path d="M37,308.343L41,319.67" style="fill:none;stroke:rgb(148,150,148);stroke-width:5.59px;"/>
            </g>
        </g>
    </g>
</svg>
