<?xml version="1.0" encoding="UTF-8" standalone="no"?>
<!DOCTYPE svg PUBLIC "-//W3C//DTD SVG 1.1//EN" "http://www.w3.org/Graphics/SVG/1.1/DTD/svg11.dtd">
<svg width="100%" height="100%" viewBox="0 0 900 900" version="1.1" xmlns="http://www.w3.org/2000/svg" xmlns:xlink="http://www.w3.org/1999/xlink" xml:space="preserve" xmlns:serif="http://www.serif.com/" style="fill-rule:evenodd;clip-rule:evenodd;stroke-linecap:round;stroke-linejoin:round;stroke-miterlimit:1.5;">
    <g transform="matrix(1,0,0,1,7.5,-7.5)">
        <path d="M442.5,15C686.722,15 885,213.278 885,457.5C885,701.722 686.722,900 442.5,900C198.278,900 0,701.722 0,457.5C0,213.278 198.278,15 442.5,15ZM442.5,54.96C664.668,54.96 845.04,235.332 845.04,457.5C845.04,679.668 664.668,860.04 442.5,860.04C220.332,860.04 39.96,679.668 39.96,457.5C39.96,235.332 220.332,54.96 442.5,54.96Z" style="fill:white;"/>
    </g>
    <g transform="matrix(0.636262,0,0,0.66897,131.305,256.19)">
        <g>
            <g transform="matrix(1,0,0,1,88,0)">
                <path d="M446.5,116L224,641" style="fill:none;stroke:rgb(255,0,58);stroke-width:120.53px;"/>
            </g>
            <g transform="matrix(1,0,0,1,536.5,0)">
                <path d="M446.5,116L224,641" style="fill:none;stroke:rgb(255,0,58);stroke-width:120.53px;"/>
            </g>
            <g transform="matrix(-1,0,0,1,984.5,0)">
                <path d="M446.5,116L224,641" style="fill:none;stroke:rgb(255,0,58);stroke-width:120.53px;"/>
            </g>
            <g transform="matrix(-1,0,0,1,536,0)">
                <path d="M446.5,116L224,641" style="fill:none;stroke:rgb(255,0,58);stroke-width:120.53px;"/>
            </g>
        </g>
        <g>
            <g transform="matrix(1,0,0,1.32115,-115,-205.856)">
                <path d="M446.5,116L224,641" style="fill:none;stroke:white;stroke-width:102.58px;"/>
            </g>
            <g transform="matrix(-1,0,0,1.32115,781.5,-205.856)">
                <path d="M446.5,116L224,641" style="fill:none;stroke:white;stroke-width:102.58px;"/>
            </g>
        </g>
    </g>
</svg>
