<?xml version="1.0" encoding="UTF-8" standalone="no"?>
<!DOCTYPE svg PUBLIC "-//W3C//DTD SVG 1.1//EN" "http://www.w3.org/Graphics/SVG/1.1/DTD/svg11.dtd">
<svg width="100%" height="100%" viewBox="0 0 331 198" version="1.1" xmlns="http://www.w3.org/2000/svg" xmlns:xlink="http://www.w3.org/1999/xlink" xml:space="preserve" xmlns:serif="http://www.serif.com/" style="fill-rule:evenodd;clip-rule:evenodd;stroke-linecap:round;stroke-linejoin:round;stroke-miterlimit:1.5;">
    <g transform="matrix(1,0,0,1,-62.2545,-59.2392)">
        <g>
            <g transform="matrix(1,0,0,1,-100.631,-23.5598)">
                <text x="162.718px" y="178.415px" style="font-family:'CoolveticaRg-Regular', 'Coolvetica', sans-serif;font-size:144px;fill:white;">A</text>
                <text x="255.31px" y="178.415px" style="font-family:'CoolveticaRg-Regular', 'Coolvetica', sans-serif;font-size:144px;fill:rgb(255,0,58);">P</text>
                <text x="332.206px" y="178.415px" style="font-family:'CoolveticaRg-Regular', 'Coolvetica', sans-serif;font-size:144px;fill:white;">E</text>
            </g>
            <g transform="matrix(0.652267,0,0,0.652267,55.1478,105.803)">
                <text x="162.718px" y="178.415px" style="font-family:'CoolveticaRg-Regular', 'Coolvetica', sans-serif;font-size:144px;fill:rgb(255,0,58);">W</text>
                <text x="263.662px" y="178.415px" style="font-family:'CoolveticaRg-Regular', 'Coolvetica', sans-serif;font-size:144px;fill:white;">AR<tspan x="438.478px " y="178.415px ">S</tspan></text>
            </g>
            <g transform="matrix(0.652267,0,0,0.652267,233.032,127.316)">
                <text x="162.718px" y="178.415px" style="font-family:'CoolveticaRg-Regular', 'Coolvetica', sans-serif;font-size:36.795px;fill:rgb(255,0,58);">CL<tspan x="202.714px 224.276px " y="178.415px 178.415px ">UB</tspan></text>
            </g>
        </g>
        <g transform="matrix(1.13744,0,0,1.13744,-13.106,-21.6803)">
            <g transform="matrix(0.0986562,0,0,0.0986562,66.2545,156.264)">
                <path d="M442.5,15C686.722,15 885,213.278 885,457.5C885,701.722 686.722,900 442.5,900C198.278,900 0,701.722 0,457.5C0,213.278 198.278,15 442.5,15ZM442.5,54.96C664.668,54.96 845.04,235.332 845.04,457.5C845.04,679.668 664.668,860.04 442.5,860.04C220.332,860.04 39.96,679.668 39.96,457.5C39.96,235.332 220.332,54.96 442.5,54.96Z" style="fill:white;"/>
            </g>
            <g transform="matrix(0.0627712,0,0,0.0659981,78.4686,182.278)">
                <g>
                    <g transform="matrix(1,0,0,1,88,0)">
                        <path d="M446.5,116L224,641" style="fill:none;stroke:rgb(255,0,58);stroke-width:120.53px;"/>
                    </g>
                    <g transform="matrix(1,0,0,1,536.5,0)">
                        <path d="M446.5,116L224,641" style="fill:none;stroke:rgb(255,0,58);stroke-width:120.53px;"/>
                    </g>
                    <g transform="matrix(-1,0,0,1,984.5,0)">
                        <path d="M446.5,116L224,641" style="fill:none;stroke:rgb(255,0,58);stroke-width:120.53px;"/>
                    </g>
                    <g transform="matrix(-1,0,0,1,536,0)">
                        <path d="M446.5,116L224,641" style="fill:none;stroke:rgb(255,0,58);stroke-width:120.53px;"/>
                    </g>
                </g>
                <g>
                    <g transform="matrix(1,0,0,1.32115,-115,-205.856)">
                        <path d="M446.5,116L224,641" style="fill:none;stroke:white;stroke-width:102.58px;"/>
                    </g>
                    <g transform="matrix(-1,0,0,1.32115,781.5,-205.856)">
                        <path d="M446.5,116L224,641" style="fill:none;stroke:white;stroke-width:102.58px;"/>
                    </g>
                </g>
            </g>
        </g>
    </g>
</svg>
